# File created by Blade
# Date/Time:  Tue Apr 07 20:53:11 2015
# Frame Rate: 120.000 fps
#------------------------------------------------------
:FULLY-SPECIFIED
:DEGREES
388
root -23.012500 32.920147 5.355188 9.780377 -80.235698 -3.910709
Spine -7.660876 -9.802041 -1.963703
Head 25.940812 -5.257205 3.225567
LeftShoulder -16.633822 19.746293 45.822953
LeftArm 129.223639 -62.017351 -83.052338
LeftForeArm 20.231972 -0.000000 23.813767
LeftHand 19.503829 -0.000000 31.340152
LeftHandThumb1 -26.253704 0.000000 33.147579
RightShoulder -20.886477 33.481894 -61.037436
RightArm 57.883631 27.137188 38.695951
RightForeArm -16.747130 -0.000000 21.020771
RightHand 28.375947 -0.000000 -46.412480
RightHandThumb1 -24.326973 -0.000000 -32.862282
LeftUpLeg 0.470588 -1.387596 -3.024126
LeftLeg 3.436290 -0.000000 -0.000000
LeftFoot -16.060235 5.643530 -22.344589
LeftToeBase -3.492100 -0.000000 0.000000
RightUpLeg -22.034254 -4.171277 6.872355
RightLeg -3.010933 -0.000000 0.000000
RightFoot 22.840778 -17.568257 -1.454634
RightToeBase 5.846262 -0.000000 -0.000000
389
root -23.026976 32.916416 5.355350 9.789727 -80.287579 -3.874415
Spine -7.764504 -9.764865 -1.980936
Head 25.956617 -5.267918 3.198241
LeftShoulder -16.675296 19.694798 45.818797
LeftArm 129.036369 -62.080851 -82.808599
LeftForeArm 20.332678 0.000000 23.741476
LeftHand 19.493702 -0.000000 31.246579
LeftHandThumb1 -26.253704 0.000000 33.147579
RightShoulder -20.891001 33.577053 -61.048877
RightArm 57.955596 27.038835 38.636060
RightForeArm -16.760379 -0.000000 20.784108
RightHand 28.322923 0.000000 -46.526136
RightHandThumb1 -24.326973 -0.000000 -32.862282
LeftUpLeg 0.513307 -1.448025 -3.031407
LeftLeg 3.322824 -0.000000 -0.000000
LeftFoot -16.054607 5.696668 -22.326548
LeftToeBase -3.535365 -0.000000 0.000000
RightUpLeg -21.866192 -4.210852 6.920796
RightLeg -3.186075 -0.000000 0.000000
RightFoot 22.519728 -17.584877 -1.409410
RightToeBase 5.683226 -0.000000 -0.000000
390
root -23.045539 32.912565 5.355671 9.803887 -80.334752 -3.831624
Spine -7.894203 -9.726660 -1.992804
Head 25.986488 -5.268888 3.166214
LeftShoulder -16.706162 19.657186 45.808196
LeftArm 128.802084 -62.172371 -82.513013
LeftForeArm 20.418428 -0.000000 23.679886
LeftHand 19.436777 -0.000000 31.168045
LeftHandThumb1 -26.253704 0.000000 33.147579
RightShoulder -20.881550 33.657440 -61.038900
RightArm 58.055867 26.943231 38.560629
RightForeArm -16.797136 -0.000000 20.518987
RightHand 28.329324 -0.000000 -46.653343
RightHandThumb1 -24.326973 -0.000000 -32.862282
LeftUpLeg 0.551279 -1.554718 -3.045933
LeftLeg 3.203839 -0.000000 -0.000000
LeftFoot -16.047303 5.847639 -22.255413
LeftToeBase -3.690317 -0.000000 0.000000
RightUpLeg -21.716535 -4.282702 6.985821
RightLeg -3.342953 -0.000000 0.000000
RightFoot 22.184331 -17.630045 -1.346153
RightToeBase 5.630127 -0.000000 -0.000000
391
root -23.068916 32.908207 5.356225 9.835850 -80.396713 -3.802305
Spine -8.042331 -9.666554 -2.003288
Head 26.029278 -5.273936 3.136691
LeftShoulder -16.682238 19.621676 45.808010
LeftArm 128.619104 -62.303919 -82.236018
LeftForeArm 20.481274 -0.000000 23.524977
LeftHand 19.478268 0.000000 31.178929
LeftHandThumb1 -26.253704 0.000000 33.147579
RightShoulder -20.877298 33.758081 -61.046720
RightArm 58.132359 26.816148 38.477263
RightForeArm -16.782707 -0.000000 20.232451
RightHand 28.423119 -0.000000 -46.822683
RightHandThumb1 -24.326973 -0.000000 -32.862282
LeftUpLeg 0.593216 -1.642412 -3.062842
LeftLeg 3.082335 -0.000000 -0.000000
LeftFoot -16.026291 6.013171 -22.140283
LeftToeBase -3.875240 -0.000000 0.000000
RightUpLeg -21.575575 -4.351040 7.053391
RightLeg -3.494389 -0.000000 0.000000
RightFoot 21.866763 -17.628072 -1.268662
RightToeBase 5.606643 -0.000000 -0.000000
392
root -23.097338 32.903016 5.357217 9.887037 -80.469820 -3.803238
Spine -8.189537 -9.596876 -2.010260
Head 26.081927 -5.283809 3.112388
LeftShoulder -16.680575 19.584996 45.807418
LeftArm 128.385162 -62.418126 -81.898595
LeftForeArm 20.611779 -0.000000 23.348263
LeftHand 19.496830 -0.000000 31.191340
LeftHandThumb1 -26.253704 0.000000 33.147579
RightShoulder -20.879049 33.839437 -61.059643
RightArm 58.210992 26.690391 38.436301
RightForeArm -16.850431 -0.000000 20.020464
RightHand 28.368785 -0.000000 -46.931367
RightHandThumb1 -24.326973 -0.000000 -32.862282
LeftUpLeg 0.651386 -1.732305 -3.075500
LeftLeg 2.977983 -0.000000 -0.000000
LeftFoot -16.018831 6.163240 -22.063895
LeftToeBase -4.061512 -0.000000 0.000000
RightUpLeg -21.429434 -4.447359 7.140748
RightLeg -3.631235 -0.000000 0.000000
RightFoot 21.566968 -17.572940 -1.251487
RightToeBase 5.453336 -0.000000 -0.000000
393
root -23.127949 32.898037 5.357537 9.866964 -80.555745 -3.709781
Spine -8.365775 -9.516501 -2.044136
Head 26.139710 -5.303525 3.111093
LeftShoulder -16.685485 19.566685 45.808031
LeftArm 128.231644 -62.505851 -81.606839
LeftForeArm 20.786667 -0.000000 23.118297
LeftHand 19.561689 -0.000000 31.179608
LeftHandThumb1 -26.253704 0.000000 33.147579
RightShoulder -20.863684 33.875816 -61.030174
RightArm 58.313801 26.594686 38.377542
RightForeArm -16.940735 -0.000000 19.789211
RightHand 28.409909 -0.000000 -47.128440
RightHandThumb1 -24.326973 -0.000000 -32.862282
LeftUpLeg 0.683536 -1.779470 -3.100023
LeftLeg 2.893208 -0.000000 -0.000000
LeftFoot -15.976393 6.289604 -21.947691
LeftToeBase -4.286742 -0.000000 0.000000
RightUpLeg -21.306737 -4.464470 7.183225
RightLeg -3.782516 -0.000000 0.000000
RightFoot 21.311699 -17.566589 -1.181889
RightToeBase 5.340505 -0.000000 -0.000000
394
root -23.162544 32.891362 5.358142 9.660306 -80.637755 -3.458910
Spine -8.504636 -9.446978 -2.114237
Head 26.175805 -5.325759 3.121375
LeftShoulder -16.676697 19.499580 45.837075
LeftArm 127.911014 -62.627426 -81.156959
LeftForeArm 20.931572 -0.000000 22.869835
LeftHand 19.627662 -0.000000 31.245519
LeftHandThumb1 -26.253704 0.000000 33.147579
RightShoulder -20.891928 34.022468 -61.052258
RightArm 58.353212 26.413208 38.316601
RightForeArm -17.032035 0.000000 19.548822
RightHand 28.452186 0.000000 -47.180216
RightHandThumb1 -24.326973 -0.000000 -32.862282
LeftUpLeg 0.739874 -1.780612 -3.148372
LeftLeg 2.830559 -0.000000 -0.000000
LeftFoot -15.911433 6.387008 -21.807264
LeftToeBase -4.576433 -0.000000 0.000000
RightUpLeg -21.169365 -4.557512 7.236143
RightLeg -3.881099 -0.000000 0.000000
RightFoot 20.979082 -17.436719 -1.275933
RightToeBase 5.307036 -0.000000 -0.000000
395
root -23.203742 32.885216 5.360732 9.395672 -80.720904 -3.172623
Spine -8.633881 -9.367829 -2.188718
Head 26.232617 -5.349127 3.124878
LeftShoulder -16.680615 19.487831 45.854982
LeftArm 127.710205 -62.708070 -80.829958
LeftForeArm 21.078776 -0.000000 22.649387
LeftHand 19.708681 0.000000 31.273347
LeftHandThumb1 -26.253704 0.000000 33.147579
RightShoulder -20.918254 34.132691 -61.045819
RightArm 58.444836 26.230774 38.227743
RightForeArm -17.143445 -0.000000 19.262669
RightHand 28.436770 -0.000000 -47.285374
RightHandThumb1 -24.326973 -0.000000 -32.862282
LeftUpLeg 0.816041 -1.715955 -3.202761
LeftLeg 2.788339 -0.000000 -0.000000
LeftFoot -15.804311 6.450289 -21.605435
LeftToeBase -4.907925 -0.000000 0.000000
RightUpLeg -21.000775 -4.629718 7.257135
RightLeg -3.983635 -0.000000 0.000000
RightFoot 20.637714 -17.255253 -1.301947
RightToeBase 5.188833 -0.000000 -0.000000
396
root -23.249246 32.879371 5.364023 9.142294 -80.807961 -2.900416
Spine -8.762726 -9.295126 -2.259189
Head 26.285328 -5.363400 3.141306
LeftShoulder -16.700140 19.403834 45.902216
LeftArm 127.285251 -62.770241 -80.300687
LeftForeArm 21.256654 -0.000000 22.449700
LeftHand 19.690465 -0.000000 31.367534
LeftHandThumb1 -26.253704 0.000000 33.147579
RightShoulder -20.960008 34.261507 -61.058588
RightArm 58.534250 26.044388 38.170981
RightForeArm -17.205874 -0.000000 18.965875
RightHand 28.570608 -0.000000 -47.335538
RightHandThumb1 -24.326973 -0.000000 -32.862282
LeftUpLeg 0.906245 -1.665411 -3.257005
LeftLeg 2.731071 -0.000000 -0.000000
LeftFoot -15.676704 6.551836 -21.359282
LeftToeBase -5.322503 -0.000000 0.000000
RightUpLeg -20.838197 -4.699158 7.277026
RightLeg -4.068937 -0.000000 0.000000
RightFoot 20.295680 -17.079980 -1.314781
RightToeBase 5.180383 -0.000000 -0.000000
397
root -23.297996 32.873389 5.368261 8.887977 -80.909849 -2.645445
Spine -8.883906 -9.204130 -2.326072
Head 26.347594 -5.367513 3.155433
LeftShoulder -16.702547 19.285149 45.964138
LeftArm 126.826698 -62.790649 -79.768191
LeftForeArm 21.452443 0.000000 22.296628
LeftHand 19.681808 0.000000 31.382759
LeftHandThumb1 -26.253704 0.000000 33.147579
RightShoulder -20.939315 34.252998 -60.984730
RightArm 58.720913 25.954731 38.069125
RightForeArm -17.260764 -0.000000 18.620782
RightHand 28.609142 0.000000 -47.426854
RightHandThumb1 -24.326973 -0.000000 -32.862282
LeftUpLeg 1.019734 -1.556138 -3.313575
LeftLeg 2.666545 -0.000000 -0.000000
LeftFoot -15.461274 6.678229 -20.996767
LeftToeBase -6.054855 -0.000000 0.000000
RightUpLeg -20.660680 -4.725344 7.273441
RightLeg -4.149967 -0.000000 0.000000
RightFoot 19.963339 -16.936100 -1.213386
RightToeBase 5.024535 -0.000000 -0.000000
